<mxfile host="app.diagrams.net" agent="Mozilla/5.0 (Windows NT 10.0; Win64; x64) AppleWebKit/537.36 (KHTML, like Gecko) Chrome/127.0.0.0 Safari/537.36 OPR/113.0.0.0" version="24.7.17" pages="15">
  <diagram id="ftspWkVQzSnOeBHXqUgO" name="Ejercicio 1">
    <mxGraphModel dx="1633" dy="755" grid="1" gridSize="10" guides="1" tooltips="1" connect="1" arrows="1" fold="1" page="1" pageScale="1" pageWidth="827" pageHeight="1169" math="0" shadow="0">
      <root>
        <mxCell id="0" />
        <mxCell id="1" parent="0" />
      </root>
    </mxGraphModel>
  </diagram>
  <diagram id="bIvEGcNOWe1LCfAD48pD" name="Ejercicio 2">
    <mxGraphModel dx="1633" dy="755" grid="1" gridSize="10" guides="1" tooltips="1" connect="1" arrows="1" fold="1" page="1" pageScale="1" pageWidth="827" pageHeight="1169" math="0" shadow="0">
      <root>
        <mxCell id="0" />
        <mxCell id="1" parent="0" />
      </root>
    </mxGraphModel>
  </diagram>
  <diagram id="XyAgDO9YhTsaVqEudsCS" name="Ejercicio 3">
    <mxGraphModel dx="1633" dy="755" grid="1" gridSize="10" guides="1" tooltips="1" connect="1" arrows="1" fold="1" page="1" pageScale="1" pageWidth="827" pageHeight="1169" math="0" shadow="0">
      <root>
        <mxCell id="0" />
        <mxCell id="1" parent="0" />
      </root>
    </mxGraphModel>
  </diagram>
  <diagram id="C5RBs43oDa-KdzZeNtuy" name="Ejercicio 4">
    <mxGraphModel dx="1633" dy="755" grid="1" gridSize="10" guides="1" tooltips="1" connect="1" arrows="1" fold="1" page="1" pageScale="1" pageWidth="827" pageHeight="1169" math="0" shadow="0">
      <root>
        <mxCell id="WIyWlLk6GJQsqaUBKTNV-0" />
        <mxCell id="WIyWlLk6GJQsqaUBKTNV-1" parent="WIyWlLk6GJQsqaUBKTNV-0" />
        <mxCell id="4Vwaa79pSSiUpaGwxr8--0" value="Inicio" style="ellipse;whiteSpace=wrap;html=1;" vertex="1" parent="WIyWlLk6GJQsqaUBKTNV-1">
          <mxGeometry x="370" y="60" width="120" height="80" as="geometry" />
        </mxCell>
        <mxCell id="4Vwaa79pSSiUpaGwxr8--1" value="Ingresar dividendo" style="shape=parallelogram;perimeter=parallelogramPerimeter;whiteSpace=wrap;html=1;fixedSize=1;" vertex="1" parent="WIyWlLk6GJQsqaUBKTNV-1">
          <mxGeometry x="370" y="210" width="120" height="60" as="geometry" />
        </mxCell>
        <mxCell id="4Vwaa79pSSiUpaGwxr8--2" value="" style="edgeStyle=orthogonalEdgeStyle;rounded=0;html=1;jettySize=auto;orthogonalLoop=1;fontSize=11;endArrow=block;endFill=0;endSize=8;strokeWidth=1;shadow=0;labelBackgroundColor=none;exitX=0.5;exitY=1;exitDx=0;exitDy=0;entryX=0.5;entryY=0;entryDx=0;entryDy=0;" edge="1" parent="WIyWlLk6GJQsqaUBKTNV-1" source="4Vwaa79pSSiUpaGwxr8--0" target="4Vwaa79pSSiUpaGwxr8--1">
          <mxGeometry x="-0.4" y="80" relative="1" as="geometry">
            <mxPoint as="offset" />
            <mxPoint x="340" y="189" as="sourcePoint" />
            <mxPoint x="390" y="189" as="targetPoint" />
            <Array as="points" />
          </mxGeometry>
        </mxCell>
        <mxCell id="4Vwaa79pSSiUpaGwxr8--5" value="Ingresar divisor" style="shape=parallelogram;perimeter=parallelogramPerimeter;whiteSpace=wrap;html=1;fixedSize=1;" vertex="1" parent="WIyWlLk6GJQsqaUBKTNV-1">
          <mxGeometry x="370" y="330" width="120" height="60" as="geometry" />
        </mxCell>
        <mxCell id="4Vwaa79pSSiUpaGwxr8--6" value="" style="edgeStyle=orthogonalEdgeStyle;rounded=0;html=1;jettySize=auto;orthogonalLoop=1;fontSize=11;endArrow=block;endFill=0;endSize=8;strokeWidth=1;shadow=0;labelBackgroundColor=none;exitX=0.5;exitY=1;exitDx=0;exitDy=0;entryX=0.5;entryY=0;entryDx=0;entryDy=0;" edge="1" parent="WIyWlLk6GJQsqaUBKTNV-1" source="4Vwaa79pSSiUpaGwxr8--1" target="4Vwaa79pSSiUpaGwxr8--5">
          <mxGeometry x="-0.4" y="80" relative="1" as="geometry">
            <mxPoint as="offset" />
            <mxPoint x="440" y="150" as="sourcePoint" />
            <mxPoint x="440" y="230" as="targetPoint" />
            <Array as="points">
              <mxPoint x="430" y="300" />
              <mxPoint x="430" y="300" />
            </Array>
          </mxGeometry>
        </mxCell>
        <mxCell id="4Vwaa79pSSiUpaGwxr8--8" value="Divisor es 0?" style="rhombus;whiteSpace=wrap;html=1;shadow=0;fontFamily=Helvetica;fontSize=12;align=center;strokeWidth=1;spacing=6;spacingTop=-4;" vertex="1" parent="WIyWlLk6GJQsqaUBKTNV-1">
          <mxGeometry x="380" y="470" width="100" height="80" as="geometry" />
        </mxCell>
        <mxCell id="4Vwaa79pSSiUpaGwxr8--12" value="" style="edgeStyle=orthogonalEdgeStyle;rounded=0;html=1;jettySize=auto;orthogonalLoop=1;fontSize=11;endArrow=block;endFill=0;endSize=8;strokeWidth=1;shadow=0;labelBackgroundColor=none;exitX=0.5;exitY=1;exitDx=0;exitDy=0;entryX=0.5;entryY=0;entryDx=0;entryDy=0;" edge="1" parent="WIyWlLk6GJQsqaUBKTNV-1" source="4Vwaa79pSSiUpaGwxr8--5">
          <mxGeometry x="-0.4" y="80" relative="1" as="geometry">
            <mxPoint as="offset" />
            <mxPoint x="429.58" y="400" as="sourcePoint" />
            <mxPoint x="429.58" y="470" as="targetPoint" />
            <Array as="points" />
          </mxGeometry>
        </mxCell>
        <mxCell id="4Vwaa79pSSiUpaGwxr8--13" value="Si" style="edgeStyle=orthogonalEdgeStyle;rounded=0;html=1;jettySize=auto;orthogonalLoop=1;fontSize=11;endArrow=block;endFill=0;endSize=8;strokeWidth=1;shadow=0;labelBackgroundColor=none;exitX=0;exitY=0.5;exitDx=0;exitDy=0;" edge="1" parent="WIyWlLk6GJQsqaUBKTNV-1" source="4Vwaa79pSSiUpaGwxr8--8">
          <mxGeometry y="10" relative="1" as="geometry">
            <mxPoint as="offset" />
            <mxPoint x="370" y="510" as="sourcePoint" />
            <mxPoint x="290" y="510" as="targetPoint" />
          </mxGeometry>
        </mxCell>
        <mxCell id="4Vwaa79pSSiUpaGwxr8--14" value="Error, no se puede dividir entre 0" style="rounded=1;whiteSpace=wrap;html=1;fontSize=12;glass=0;strokeWidth=1;shadow=0;" vertex="1" parent="WIyWlLk6GJQsqaUBKTNV-1">
          <mxGeometry x="170" y="490" width="120" height="40" as="geometry" />
        </mxCell>
        <mxCell id="4Vwaa79pSSiUpaGwxr8--15" value="Fin" style="ellipse;whiteSpace=wrap;html=1;" vertex="1" parent="WIyWlLk6GJQsqaUBKTNV-1">
          <mxGeometry x="370" y="690" width="120" height="80" as="geometry" />
        </mxCell>
        <mxCell id="4Vwaa79pSSiUpaGwxr8--16" value="No" style="edgeStyle=orthogonalEdgeStyle;rounded=0;html=1;jettySize=auto;orthogonalLoop=1;fontSize=11;endArrow=block;endFill=0;endSize=8;strokeWidth=1;shadow=0;labelBackgroundColor=none;exitX=0.5;exitY=1;exitDx=0;exitDy=0;" edge="1" parent="WIyWlLk6GJQsqaUBKTNV-1" source="4Vwaa79pSSiUpaGwxr8--8">
          <mxGeometry x="-0.2547" y="20" relative="1" as="geometry">
            <mxPoint as="offset" />
            <mxPoint x="400" y="570" as="sourcePoint" />
            <mxPoint x="430" y="610" as="targetPoint" />
          </mxGeometry>
        </mxCell>
        <mxCell id="4Vwaa79pSSiUpaGwxr8--18" value="" style="edgeStyle=orthogonalEdgeStyle;rounded=0;html=1;jettySize=auto;orthogonalLoop=1;fontSize=11;endArrow=block;endFill=0;endSize=8;strokeWidth=1;shadow=0;labelBackgroundColor=none;exitX=0.5;exitY=1;exitDx=0;exitDy=0;entryX=0;entryY=0.5;entryDx=0;entryDy=0;" edge="1" parent="WIyWlLk6GJQsqaUBKTNV-1" target="4Vwaa79pSSiUpaGwxr8--15">
          <mxGeometry x="-0.4" y="80" relative="1" as="geometry">
            <mxPoint as="offset" />
            <mxPoint x="229.96" y="530" as="sourcePoint" />
            <mxPoint x="229.54" y="610" as="targetPoint" />
            <Array as="points" />
          </mxGeometry>
        </mxCell>
        <mxCell id="4Vwaa79pSSiUpaGwxr8--19" value="Realizar division" style="rounded=1;whiteSpace=wrap;html=1;fontSize=12;glass=0;strokeWidth=1;shadow=0;" vertex="1" parent="WIyWlLk6GJQsqaUBKTNV-1">
          <mxGeometry x="370" y="610" width="120" height="40" as="geometry" />
        </mxCell>
        <mxCell id="4Vwaa79pSSiUpaGwxr8--20" value="" style="edgeStyle=orthogonalEdgeStyle;rounded=0;html=1;jettySize=auto;orthogonalLoop=1;fontSize=11;endArrow=block;endFill=0;endSize=8;strokeWidth=1;shadow=0;labelBackgroundColor=none;exitX=0.5;exitY=1;exitDx=0;exitDy=0;" edge="1" parent="WIyWlLk6GJQsqaUBKTNV-1" source="4Vwaa79pSSiUpaGwxr8--19">
          <mxGeometry x="-0.4" y="80" relative="1" as="geometry">
            <mxPoint as="offset" />
            <mxPoint x="429.96" y="660" as="sourcePoint" />
            <mxPoint x="430" y="690" as="targetPoint" />
            <Array as="points" />
          </mxGeometry>
        </mxCell>
      </root>
    </mxGraphModel>
  </diagram>
  <diagram id="kpDSDF8NG-edxB28hito" name="Ejercicio 5">
    <mxGraphModel dx="1633" dy="1924" grid="1" gridSize="10" guides="1" tooltips="1" connect="1" arrows="1" fold="1" page="1" pageScale="1" pageWidth="827" pageHeight="1169" math="0" shadow="0">
      <root>
        <mxCell id="0" />
        <mxCell id="1" parent="0" />
        <mxCell id="x9pDXPQPPn0UF1ymMDLz-4" style="edgeStyle=orthogonalEdgeStyle;rounded=0;orthogonalLoop=1;jettySize=auto;html=1;exitX=0.5;exitY=1;exitDx=0;exitDy=0;entryX=0.5;entryY=0;entryDx=0;entryDy=0;" parent="1" source="TrpBaNkYJpaLG4i60zRZ-1" target="TrpBaNkYJpaLG4i60zRZ-2" edge="1">
          <mxGeometry relative="1" as="geometry" />
        </mxCell>
        <mxCell id="TrpBaNkYJpaLG4i60zRZ-1" value="Inicio" style="ellipse;whiteSpace=wrap;html=1;" parent="1" vertex="1">
          <mxGeometry x="340" y="-1060" width="120" height="80" as="geometry" />
        </mxCell>
        <mxCell id="MFwLGzi_1m5dlarn6RXu-5" style="edgeStyle=orthogonalEdgeStyle;rounded=0;orthogonalLoop=1;jettySize=auto;html=1;exitX=0.5;exitY=1;exitDx=0;exitDy=0;entryX=0.5;entryY=0;entryDx=0;entryDy=0;" parent="1" source="TrpBaNkYJpaLG4i60zRZ-2" target="MFwLGzi_1m5dlarn6RXu-4" edge="1">
          <mxGeometry relative="1" as="geometry" />
        </mxCell>
        <mxCell id="TrpBaNkYJpaLG4i60zRZ-2" value="Entra A" style="shape=parallelogram;perimeter=parallelogramPerimeter;whiteSpace=wrap;html=1;fixedSize=1;" parent="1" vertex="1">
          <mxGeometry x="340" y="-920" width="120" height="60" as="geometry" />
        </mxCell>
        <mxCell id="x9pDXPQPPn0UF1ymMDLz-1" value="" style="strokeWidth=2;html=1;shape=mxgraph.flowchart.decision;whiteSpace=wrap;" parent="1" vertex="1">
          <mxGeometry x="596" y="-430" width="100" height="100" as="geometry" />
        </mxCell>
        <mxCell id="MFwLGzi_1m5dlarn6RXu-3" style="edgeStyle=orthogonalEdgeStyle;rounded=0;orthogonalLoop=1;jettySize=auto;html=1;exitX=0.5;exitY=1;exitDx=0;exitDy=0;exitPerimeter=0;entryX=0.5;entryY=0;entryDx=0;entryDy=0;" parent="1" source="x9pDXPQPPn0UF1ymMDLz-2" target="MFwLGzi_1m5dlarn6RXu-1" edge="1">
          <mxGeometry relative="1" as="geometry" />
        </mxCell>
        <mxCell id="x9pDXPQPPn0UF1ymMDLz-2" value="A &amp;gt; B?" style="strokeWidth=2;html=1;shape=mxgraph.flowchart.decision;whiteSpace=wrap;" parent="1" vertex="1">
          <mxGeometry x="350" y="-660" width="100" height="100" as="geometry" />
        </mxCell>
        <mxCell id="x9pDXPQPPn0UF1ymMDLz-6" value="C" style="shape=parallelogram;perimeter=parallelogramPerimeter;whiteSpace=wrap;html=1;fixedSize=1;" parent="1" vertex="1">
          <mxGeometry x="546" y="-240" width="120" height="60" as="geometry" />
        </mxCell>
        <mxCell id="MFwLGzi_1m5dlarn6RXu-1" value="Comparar A &amp;gt; C" style="rounded=1;whiteSpace=wrap;html=1;" parent="1" vertex="1">
          <mxGeometry x="340" y="-520" width="120" height="60" as="geometry" />
        </mxCell>
        <mxCell id="MFwLGzi_1m5dlarn6RXu-7" style="edgeStyle=orthogonalEdgeStyle;rounded=0;orthogonalLoop=1;jettySize=auto;html=1;exitX=0.5;exitY=1;exitDx=0;exitDy=0;" parent="1" source="MFwLGzi_1m5dlarn6RXu-4" target="MFwLGzi_1m5dlarn6RXu-6" edge="1">
          <mxGeometry relative="1" as="geometry" />
        </mxCell>
        <mxCell id="MFwLGzi_1m5dlarn6RXu-4" value="Entra B" style="shape=parallelogram;perimeter=parallelogramPerimeter;whiteSpace=wrap;html=1;fixedSize=1;" parent="1" vertex="1">
          <mxGeometry x="340" y="-840" width="120" height="60" as="geometry" />
        </mxCell>
        <mxCell id="MFwLGzi_1m5dlarn6RXu-9" style="edgeStyle=orthogonalEdgeStyle;rounded=0;orthogonalLoop=1;jettySize=auto;html=1;exitX=0.5;exitY=1;exitDx=0;exitDy=0;" parent="1" source="MFwLGzi_1m5dlarn6RXu-6" target="x9pDXPQPPn0UF1ymMDLz-2" edge="1">
          <mxGeometry relative="1" as="geometry" />
        </mxCell>
        <mxCell id="MFwLGzi_1m5dlarn6RXu-6" value="Entra C" style="shape=parallelogram;perimeter=parallelogramPerimeter;whiteSpace=wrap;html=1;fixedSize=1;" parent="1" vertex="1">
          <mxGeometry x="340" y="-760" width="120" height="60" as="geometry" />
        </mxCell>
      </root>
    </mxGraphModel>
  </diagram>
  <diagram id="SmMMmW6I8BjTTmoG87Bl" name="Ejercicio 6">
    <mxGraphModel dx="1633" dy="755" grid="1" gridSize="10" guides="1" tooltips="1" connect="1" arrows="1" fold="1" page="1" pageScale="1" pageWidth="827" pageHeight="1169" math="0" shadow="0">
      <root>
        <mxCell id="0" />
        <mxCell id="1" parent="0" />
        <mxCell id="mMH2h2nJTwUbdudxSyWE-4" style="edgeStyle=orthogonalEdgeStyle;rounded=0;orthogonalLoop=1;jettySize=auto;html=1;exitX=0.5;exitY=1;exitDx=0;exitDy=0;entryX=0.5;entryY=0;entryDx=0;entryDy=0;" parent="1" source="mMH2h2nJTwUbdudxSyWE-1" target="mMH2h2nJTwUbdudxSyWE-3" edge="1">
          <mxGeometry relative="1" as="geometry" />
        </mxCell>
        <mxCell id="mMH2h2nJTwUbdudxSyWE-1" value="Inicio" style="ellipse;whiteSpace=wrap;html=1;" parent="1" vertex="1">
          <mxGeometry x="354" y="20" width="120" height="80" as="geometry" />
        </mxCell>
        <mxCell id="mMH2h2nJTwUbdudxSyWE-6" style="edgeStyle=orthogonalEdgeStyle;rounded=0;orthogonalLoop=1;jettySize=auto;html=1;exitX=0.5;exitY=1;exitDx=0;exitDy=0;" parent="1" source="mMH2h2nJTwUbdudxSyWE-3" target="mMH2h2nJTwUbdudxSyWE-5" edge="1">
          <mxGeometry relative="1" as="geometry" />
        </mxCell>
        <mxCell id="mMH2h2nJTwUbdudxSyWE-3" value="Precio del producto" style="shape=parallelogram;perimeter=parallelogramPerimeter;whiteSpace=wrap;html=1;fixedSize=1;" parent="1" vertex="1">
          <mxGeometry x="354" y="140" width="120" height="60" as="geometry" />
        </mxCell>
        <mxCell id="7-n5YJtnWscDFQOuNIK--2" style="edgeStyle=orthogonalEdgeStyle;rounded=0;orthogonalLoop=1;jettySize=auto;html=1;exitX=0.5;exitY=1;exitDx=0;exitDy=0;entryX=0.5;entryY=0;entryDx=0;entryDy=0;" parent="1" source="mMH2h2nJTwUbdudxSyWE-5" target="7-n5YJtnWscDFQOuNIK--1" edge="1">
          <mxGeometry relative="1" as="geometry" />
        </mxCell>
        <mxCell id="mMH2h2nJTwUbdudxSyWE-5" value="Cantidad del producto" style="shape=parallelogram;perimeter=parallelogramPerimeter;whiteSpace=wrap;html=1;fixedSize=1;" parent="1" vertex="1">
          <mxGeometry x="354" y="230" width="120" height="60" as="geometry" />
        </mxCell>
        <mxCell id="7-n5YJtnWscDFQOuNIK--4" value="" style="edgeStyle=orthogonalEdgeStyle;rounded=0;orthogonalLoop=1;jettySize=auto;html=1;" parent="1" source="7-n5YJtnWscDFQOuNIK--1" target="7-n5YJtnWscDFQOuNIK--3" edge="1">
          <mxGeometry relative="1" as="geometry" />
        </mxCell>
        <mxCell id="7-n5YJtnWscDFQOuNIK--1" value="Precio * Cantidad = Importe total" style="rounded=0;whiteSpace=wrap;html=1;" parent="1" vertex="1">
          <mxGeometry x="354" y="330" width="120" height="60" as="geometry" />
        </mxCell>
        <mxCell id="7-n5YJtnWscDFQOuNIK--6" value="" style="edgeStyle=orthogonalEdgeStyle;rounded=0;orthogonalLoop=1;jettySize=auto;html=1;" parent="1" source="7-n5YJtnWscDFQOuNIK--3" target="7-n5YJtnWscDFQOuNIK--5" edge="1">
          <mxGeometry relative="1" as="geometry" />
        </mxCell>
        <mxCell id="7-n5YJtnWscDFQOuNIK--15" value="" style="edgeStyle=orthogonalEdgeStyle;rounded=0;orthogonalLoop=1;jettySize=auto;html=1;" parent="1" source="7-n5YJtnWscDFQOuNIK--3" target="7-n5YJtnWscDFQOuNIK--12" edge="1">
          <mxGeometry relative="1" as="geometry" />
        </mxCell>
        <mxCell id="7-n5YJtnWscDFQOuNIK--16" value="No" style="edgeLabel;html=1;align=center;verticalAlign=middle;resizable=0;points=[];" parent="7-n5YJtnWscDFQOuNIK--15" vertex="1" connectable="0">
          <mxGeometry x="-0.1429" relative="1" as="geometry">
            <mxPoint x="16" y="2" as="offset" />
          </mxGeometry>
        </mxCell>
        <mxCell id="7-n5YJtnWscDFQOuNIK--3" value="Superior a 100 euros?" style="rhombus;whiteSpace=wrap;html=1;rounded=0;" parent="1" vertex="1">
          <mxGeometry x="374" y="440" width="80" height="80" as="geometry" />
        </mxCell>
        <mxCell id="7-n5YJtnWscDFQOuNIK--7" value="" style="edgeStyle=orthogonalEdgeStyle;rounded=0;orthogonalLoop=1;jettySize=auto;html=1;" parent="1" source="7-n5YJtnWscDFQOuNIK--5" target="7-n5YJtnWscDFQOuNIK--3" edge="1">
          <mxGeometry relative="1" as="geometry" />
        </mxCell>
        <mxCell id="7-n5YJtnWscDFQOuNIK--14" value="Si" style="edgeLabel;html=1;align=center;verticalAlign=middle;resizable=0;points=[];" parent="7-n5YJtnWscDFQOuNIK--7" vertex="1" connectable="0">
          <mxGeometry x="0.1458" y="3" relative="1" as="geometry">
            <mxPoint x="5" y="7" as="offset" />
          </mxGeometry>
        </mxCell>
        <mxCell id="7-n5YJtnWscDFQOuNIK--17" style="edgeStyle=orthogonalEdgeStyle;rounded=0;orthogonalLoop=1;jettySize=auto;html=1;exitX=0.5;exitY=1;exitDx=0;exitDy=0;entryX=1;entryY=0.5;entryDx=0;entryDy=0;" parent="1" source="7-n5YJtnWscDFQOuNIK--5" target="7-n5YJtnWscDFQOuNIK--12" edge="1">
          <mxGeometry relative="1" as="geometry" />
        </mxCell>
        <mxCell id="7-n5YJtnWscDFQOuNIK--5" value="Descuento del 10%" style="whiteSpace=wrap;html=1;rounded=0;" parent="1" vertex="1">
          <mxGeometry x="550" y="450" width="120" height="60" as="geometry" />
        </mxCell>
        <mxCell id="7-n5YJtnWscDFQOuNIK--19" value="" style="edgeStyle=orthogonalEdgeStyle;rounded=0;orthogonalLoop=1;jettySize=auto;html=1;" parent="1" source="7-n5YJtnWscDFQOuNIK--12" target="7-n5YJtnWscDFQOuNIK--18" edge="1">
          <mxGeometry relative="1" as="geometry" />
        </mxCell>
        <mxCell id="7-n5YJtnWscDFQOuNIK--12" value="Aplicar IVA del 21%" style="rounded=0;whiteSpace=wrap;html=1;" parent="1" vertex="1">
          <mxGeometry x="354" y="585" width="120" height="60" as="geometry" />
        </mxCell>
        <mxCell id="7-n5YJtnWscDFQOuNIK--18" value="Fin" style="ellipse;whiteSpace=wrap;html=1;" parent="1" vertex="1">
          <mxGeometry x="354" y="700" width="120" height="80" as="geometry" />
        </mxCell>
      </root>
    </mxGraphModel>
  </diagram>
  <diagram name="Ejercicio 7" id="ACaagOE0mrksnBYWawOe">
    <mxGraphModel dx="671" dy="793" grid="1" gridSize="10" guides="1" tooltips="1" connect="1" arrows="1" fold="1" page="1" pageScale="1" pageWidth="827" pageHeight="1169" math="0" shadow="0">
      <root>
        <mxCell id="fOsrMegVR8BtTvoGDCJO-0" />
        <mxCell id="fOsrMegVR8BtTvoGDCJO-1" parent="fOsrMegVR8BtTvoGDCJO-0" />
        <mxCell id="4hqvS73kckpVuPVdtEe1-1" value="" style="edgeStyle=none;curved=1;rounded=0;orthogonalLoop=1;jettySize=auto;html=1;fontSize=12;startSize=8;endSize=8;" edge="1" parent="fOsrMegVR8BtTvoGDCJO-1" source="fOsrMegVR8BtTvoGDCJO-3" target="4hqvS73kckpVuPVdtEe1-0">
          <mxGeometry relative="1" as="geometry" />
        </mxCell>
        <mxCell id="fOsrMegVR8BtTvoGDCJO-3" value="Inicio" style="ellipse;whiteSpace=wrap;html=1;" vertex="1" parent="fOsrMegVR8BtTvoGDCJO-1">
          <mxGeometry x="354" y="20" width="120" height="80" as="geometry" />
        </mxCell>
        <mxCell id="fOsrMegVR8BtTvoGDCJO-20" value="Fin" style="ellipse;whiteSpace=wrap;html=1;" vertex="1" parent="fOsrMegVR8BtTvoGDCJO-1">
          <mxGeometry x="354" y="580" width="120" height="80" as="geometry" />
        </mxCell>
        <mxCell id="4hqvS73kckpVuPVdtEe1-9" value="" style="edgeStyle=none;curved=1;rounded=0;orthogonalLoop=1;jettySize=auto;html=1;fontSize=12;startSize=8;endSize=8;" edge="1" parent="fOsrMegVR8BtTvoGDCJO-1" source="4hqvS73kckpVuPVdtEe1-0" target="4hqvS73kckpVuPVdtEe1-8">
          <mxGeometry relative="1" as="geometry" />
        </mxCell>
        <mxCell id="4hqvS73kckpVuPVdtEe1-0" value="Usuario" style="shape=parallelogram;perimeter=parallelogramPerimeter;whiteSpace=wrap;html=1;fixedSize=1;" vertex="1" parent="fOsrMegVR8BtTvoGDCJO-1">
          <mxGeometry x="354" y="150" width="120" height="60" as="geometry" />
        </mxCell>
        <mxCell id="4hqvS73kckpVuPVdtEe1-11" value="" style="edgeStyle=none;curved=1;rounded=0;orthogonalLoop=1;jettySize=auto;html=1;fontSize=12;startSize=8;endSize=8;entryX=0;entryY=0;entryDx=0;entryDy=0;" edge="1" parent="fOsrMegVR8BtTvoGDCJO-1" source="4hqvS73kckpVuPVdtEe1-8" target="4hqvS73kckpVuPVdtEe1-13">
          <mxGeometry relative="1" as="geometry">
            <mxPoint x="574" y="300" as="targetPoint" />
          </mxGeometry>
        </mxCell>
        <mxCell id="4hqvS73kckpVuPVdtEe1-12" value="Si" style="edgeLabel;html=1;align=center;verticalAlign=middle;resizable=0;points=[];fontSize=12;" vertex="1" connectable="0" parent="4hqvS73kckpVuPVdtEe1-11">
          <mxGeometry x="-0.0167" y="-2" relative="1" as="geometry">
            <mxPoint y="-22" as="offset" />
          </mxGeometry>
        </mxCell>
        <mxCell id="4hqvS73kckpVuPVdtEe1-15" value="" style="edgeStyle=none;curved=1;rounded=0;orthogonalLoop=1;jettySize=auto;html=1;fontSize=12;startSize=8;endSize=8;entryX=1;entryY=0.5;entryDx=0;entryDy=0;" edge="1" parent="fOsrMegVR8BtTvoGDCJO-1" source="4hqvS73kckpVuPVdtEe1-8" target="4hqvS73kckpVuPVdtEe1-17">
          <mxGeometry relative="1" as="geometry">
            <mxPoint x="254" y="300" as="targetPoint" />
          </mxGeometry>
        </mxCell>
        <mxCell id="4hqvS73kckpVuPVdtEe1-16" value="No" style="edgeLabel;html=1;align=center;verticalAlign=middle;resizable=0;points=[];fontSize=12;" vertex="1" connectable="0" parent="4hqvS73kckpVuPVdtEe1-15">
          <mxGeometry x="-0.1667" y="2" relative="1" as="geometry">
            <mxPoint x="-4" y="-22" as="offset" />
          </mxGeometry>
        </mxCell>
        <mxCell id="4hqvS73kckpVuPVdtEe1-8" value="acceso valido?" style="rhombus;whiteSpace=wrap;html=1;" vertex="1" parent="fOsrMegVR8BtTvoGDCJO-1">
          <mxGeometry x="374" y="260" width="80" height="80" as="geometry" />
        </mxCell>
        <mxCell id="4hqvS73kckpVuPVdtEe1-18" style="edgeStyle=none;curved=1;rounded=0;orthogonalLoop=1;jettySize=auto;html=1;exitX=0.25;exitY=1;exitDx=0;exitDy=0;entryX=1;entryY=0;entryDx=0;entryDy=0;fontSize=12;startSize=8;endSize=8;" edge="1" parent="fOsrMegVR8BtTvoGDCJO-1" source="4hqvS73kckpVuPVdtEe1-13" target="fOsrMegVR8BtTvoGDCJO-20">
          <mxGeometry relative="1" as="geometry" />
        </mxCell>
        <mxCell id="4hqvS73kckpVuPVdtEe1-13" value="Acceso permitido" style="rounded=0;whiteSpace=wrap;html=1;" vertex="1" parent="fOsrMegVR8BtTvoGDCJO-1">
          <mxGeometry x="520" y="440" width="120" height="60" as="geometry" />
        </mxCell>
        <mxCell id="4hqvS73kckpVuPVdtEe1-20" value="" style="edgeStyle=none;curved=1;rounded=0;orthogonalLoop=1;jettySize=auto;html=1;fontSize=12;startSize=8;endSize=8;" edge="1" parent="fOsrMegVR8BtTvoGDCJO-1" source="4hqvS73kckpVuPVdtEe1-17" target="4hqvS73kckpVuPVdtEe1-19">
          <mxGeometry relative="1" as="geometry" />
        </mxCell>
        <mxCell id="4hqvS73kckpVuPVdtEe1-17" value="Verificar si puede solicitar permiso" style="rounded=0;whiteSpace=wrap;html=1;" vertex="1" parent="fOsrMegVR8BtTvoGDCJO-1">
          <mxGeometry x="140" y="270" width="120" height="60" as="geometry" />
        </mxCell>
        <mxCell id="4hqvS73kckpVuPVdtEe1-21" style="edgeStyle=none;curved=1;rounded=0;orthogonalLoop=1;jettySize=auto;html=1;exitX=1;exitY=0.5;exitDx=0;exitDy=0;entryX=0;entryY=0.5;entryDx=0;entryDy=0;fontSize=12;startSize=8;endSize=8;" edge="1" parent="fOsrMegVR8BtTvoGDCJO-1" source="4hqvS73kckpVuPVdtEe1-19" target="4hqvS73kckpVuPVdtEe1-13">
          <mxGeometry relative="1" as="geometry" />
        </mxCell>
        <mxCell id="4hqvS73kckpVuPVdtEe1-22" value="Si" style="edgeLabel;html=1;align=center;verticalAlign=middle;resizable=0;points=[];fontSize=12;" vertex="1" connectable="0" parent="4hqvS73kckpVuPVdtEe1-21">
          <mxGeometry x="-0.25" y="1" relative="1" as="geometry">
            <mxPoint x="9" y="-9" as="offset" />
          </mxGeometry>
        </mxCell>
        <mxCell id="4hqvS73kckpVuPVdtEe1-24" value="" style="edgeStyle=none;curved=1;rounded=0;orthogonalLoop=1;jettySize=auto;html=1;fontSize=12;startSize=8;endSize=8;" edge="1" parent="fOsrMegVR8BtTvoGDCJO-1" source="4hqvS73kckpVuPVdtEe1-19" target="4hqvS73kckpVuPVdtEe1-23">
          <mxGeometry relative="1" as="geometry" />
        </mxCell>
        <mxCell id="4hqvS73kckpVuPVdtEe1-25" value="No" style="edgeLabel;html=1;align=center;verticalAlign=middle;resizable=0;points=[];fontSize=12;" vertex="1" connectable="0" parent="4hqvS73kckpVuPVdtEe1-24">
          <mxGeometry x="-0.175" relative="1" as="geometry">
            <mxPoint x="20" as="offset" />
          </mxGeometry>
        </mxCell>
        <mxCell id="4hqvS73kckpVuPVdtEe1-19" value="Cumple los requisitos?" style="rhombus;whiteSpace=wrap;html=1;rounded=0;" vertex="1" parent="fOsrMegVR8BtTvoGDCJO-1">
          <mxGeometry x="160" y="430" width="80" height="80" as="geometry" />
        </mxCell>
        <mxCell id="4hqvS73kckpVuPVdtEe1-26" style="edgeStyle=none;curved=1;rounded=0;orthogonalLoop=1;jettySize=auto;html=1;exitX=1;exitY=0.5;exitDx=0;exitDy=0;entryX=0;entryY=0.5;entryDx=0;entryDy=0;fontSize=12;startSize=8;endSize=8;" edge="1" parent="fOsrMegVR8BtTvoGDCJO-1" source="4hqvS73kckpVuPVdtEe1-23" target="fOsrMegVR8BtTvoGDCJO-20">
          <mxGeometry relative="1" as="geometry" />
        </mxCell>
        <mxCell id="4hqvS73kckpVuPVdtEe1-23" value="Acceso denegado" style="whiteSpace=wrap;html=1;rounded=0;" vertex="1" parent="fOsrMegVR8BtTvoGDCJO-1">
          <mxGeometry x="140" y="590" width="120" height="60" as="geometry" />
        </mxCell>
      </root>
    </mxGraphModel>
  </diagram>
  <diagram name="Ejercicio 8" id="jBaumer_7XRUUJB__mP6">
    <mxGraphModel dx="1633" dy="755" grid="1" gridSize="10" guides="1" tooltips="1" connect="1" arrows="1" fold="1" page="1" pageScale="1" pageWidth="827" pageHeight="1169" math="0" shadow="0">
      <root>
        <mxCell id="7XJ5g3CMLjdhtXHzvICb-0" />
        <mxCell id="7XJ5g3CMLjdhtXHzvICb-1" parent="7XJ5g3CMLjdhtXHzvICb-0" />
        <mxCell id="7XJ5g3CMLjdhtXHzvICb-2" value="" style="edgeStyle=none;curved=1;rounded=0;orthogonalLoop=1;jettySize=auto;html=1;fontSize=12;startSize=8;endSize=8;" edge="1" parent="7XJ5g3CMLjdhtXHzvICb-1" source="7XJ5g3CMLjdhtXHzvICb-3" target="7XJ5g3CMLjdhtXHzvICb-6">
          <mxGeometry relative="1" as="geometry" />
        </mxCell>
        <mxCell id="7XJ5g3CMLjdhtXHzvICb-3" value="Inicio" style="ellipse;whiteSpace=wrap;html=1;" vertex="1" parent="7XJ5g3CMLjdhtXHzvICb-1">
          <mxGeometry x="354" y="20" width="120" height="80" as="geometry" />
        </mxCell>
        <mxCell id="7XJ5g3CMLjdhtXHzvICb-4" value="Fin" style="ellipse;whiteSpace=wrap;html=1;" vertex="1" parent="7XJ5g3CMLjdhtXHzvICb-1">
          <mxGeometry x="354" y="580" width="120" height="80" as="geometry" />
        </mxCell>
        <mxCell id="7XJ5g3CMLjdhtXHzvICb-5" value="" style="edgeStyle=none;curved=1;rounded=0;orthogonalLoop=1;jettySize=auto;html=1;fontSize=12;startSize=8;endSize=8;" edge="1" parent="7XJ5g3CMLjdhtXHzvICb-1" source="7XJ5g3CMLjdhtXHzvICb-6" target="7XJ5g3CMLjdhtXHzvICb-11">
          <mxGeometry relative="1" as="geometry" />
        </mxCell>
        <mxCell id="7XJ5g3CMLjdhtXHzvICb-6" value="Ingresar Correo electronico" style="shape=parallelogram;perimeter=parallelogramPerimeter;whiteSpace=wrap;html=1;fixedSize=1;" vertex="1" parent="7XJ5g3CMLjdhtXHzvICb-1">
          <mxGeometry x="354" y="150" width="120" height="60" as="geometry" />
        </mxCell>
        <mxCell id="7XJ5g3CMLjdhtXHzvICb-7" value="" style="edgeStyle=none;curved=1;rounded=0;orthogonalLoop=1;jettySize=auto;html=1;fontSize=12;startSize=8;endSize=8;entryX=0;entryY=0;entryDx=0;entryDy=0;" edge="1" parent="7XJ5g3CMLjdhtXHzvICb-1" source="7XJ5g3CMLjdhtXHzvICb-11" target="7XJ5g3CMLjdhtXHzvICb-13">
          <mxGeometry relative="1" as="geometry">
            <mxPoint x="574" y="300" as="targetPoint" />
          </mxGeometry>
        </mxCell>
        <mxCell id="7XJ5g3CMLjdhtXHzvICb-8" value="Si" style="edgeLabel;html=1;align=center;verticalAlign=middle;resizable=0;points=[];fontSize=12;" vertex="1" connectable="0" parent="7XJ5g3CMLjdhtXHzvICb-7">
          <mxGeometry x="-0.0167" y="-2" relative="1" as="geometry">
            <mxPoint y="-22" as="offset" />
          </mxGeometry>
        </mxCell>
        <mxCell id="7XJ5g3CMLjdhtXHzvICb-9" value="" style="edgeStyle=none;curved=1;rounded=0;orthogonalLoop=1;jettySize=auto;html=1;fontSize=12;startSize=8;endSize=8;entryX=1;entryY=0.5;entryDx=0;entryDy=0;" edge="1" parent="7XJ5g3CMLjdhtXHzvICb-1" source="7XJ5g3CMLjdhtXHzvICb-11" target="0gBAq2o1QKCW9OdAiviv-0">
          <mxGeometry relative="1" as="geometry">
            <mxPoint x="260" y="300" as="targetPoint" />
          </mxGeometry>
        </mxCell>
        <mxCell id="7XJ5g3CMLjdhtXHzvICb-10" value="No" style="edgeLabel;html=1;align=center;verticalAlign=middle;resizable=0;points=[];fontSize=12;" vertex="1" connectable="0" parent="7XJ5g3CMLjdhtXHzvICb-9">
          <mxGeometry x="-0.1667" y="2" relative="1" as="geometry">
            <mxPoint x="-4" y="-22" as="offset" />
          </mxGeometry>
        </mxCell>
        <mxCell id="7XJ5g3CMLjdhtXHzvICb-11" value="@ y dominio valido?" style="rhombus;whiteSpace=wrap;html=1;" vertex="1" parent="7XJ5g3CMLjdhtXHzvICb-1">
          <mxGeometry x="374" y="260" width="80" height="80" as="geometry" />
        </mxCell>
        <mxCell id="7XJ5g3CMLjdhtXHzvICb-12" style="edgeStyle=none;curved=1;rounded=0;orthogonalLoop=1;jettySize=auto;html=1;exitX=0.25;exitY=1;exitDx=0;exitDy=0;entryX=1;entryY=0;entryDx=0;entryDy=0;fontSize=12;startSize=8;endSize=8;" edge="1" parent="7XJ5g3CMLjdhtXHzvICb-1" source="7XJ5g3CMLjdhtXHzvICb-13" target="7XJ5g3CMLjdhtXHzvICb-4">
          <mxGeometry relative="1" as="geometry" />
        </mxCell>
        <mxCell id="7XJ5g3CMLjdhtXHzvICb-13" value="Correo valido" style="rounded=0;whiteSpace=wrap;html=1;" vertex="1" parent="7XJ5g3CMLjdhtXHzvICb-1">
          <mxGeometry x="520" y="440" width="120" height="60" as="geometry" />
        </mxCell>
        <mxCell id="7XJ5g3CMLjdhtXHzvICb-16" value="No" style="edgeStyle=none;curved=1;rounded=0;orthogonalLoop=1;jettySize=auto;html=1;fontSize=12;startSize=8;endSize=8;exitX=0;exitY=0;exitDx=0;exitDy=0;entryX=0;entryY=0.5;entryDx=0;entryDy=0;" edge="1" parent="7XJ5g3CMLjdhtXHzvICb-1" source="0gBAq2o1QKCW9OdAiviv-1" target="7XJ5g3CMLjdhtXHzvICb-6">
          <mxGeometry x="-0.3531" y="-41" relative="1" as="geometry">
            <mxPoint x="280" y="470" as="sourcePoint" />
            <mxPoint x="300" y="200" as="targetPoint" />
            <Array as="points">
              <mxPoint x="40" y="170" />
            </Array>
            <mxPoint as="offset" />
          </mxGeometry>
        </mxCell>
        <mxCell id="7XJ5g3CMLjdhtXHzvICb-18" value="" style="edgeStyle=none;curved=1;rounded=0;orthogonalLoop=1;jettySize=auto;html=1;fontSize=12;startSize=8;endSize=8;exitX=1;exitY=1;exitDx=0;exitDy=0;entryX=1;entryY=0;entryDx=0;entryDy=0;" edge="1" parent="7XJ5g3CMLjdhtXHzvICb-1" source="0gBAq2o1QKCW9OdAiviv-0" target="7XJ5g3CMLjdhtXHzvICb-22">
          <mxGeometry relative="1" as="geometry">
            <mxPoint x="200" y="510" as="sourcePoint" />
            <Array as="points">
              <mxPoint x="340" y="470" />
            </Array>
          </mxGeometry>
        </mxCell>
        <mxCell id="7XJ5g3CMLjdhtXHzvICb-19" value="Si" style="edgeLabel;html=1;align=center;verticalAlign=middle;resizable=0;points=[];fontSize=12;" vertex="1" connectable="0" parent="7XJ5g3CMLjdhtXHzvICb-18">
          <mxGeometry x="-0.175" relative="1" as="geometry">
            <mxPoint x="3" y="41" as="offset" />
          </mxGeometry>
        </mxCell>
        <mxCell id="7XJ5g3CMLjdhtXHzvICb-21" style="edgeStyle=none;curved=1;rounded=0;orthogonalLoop=1;jettySize=auto;html=1;exitX=1;exitY=0.5;exitDx=0;exitDy=0;entryX=0;entryY=0.5;entryDx=0;entryDy=0;fontSize=12;startSize=8;endSize=8;" edge="1" parent="7XJ5g3CMLjdhtXHzvICb-1" source="7XJ5g3CMLjdhtXHzvICb-22" target="7XJ5g3CMLjdhtXHzvICb-4">
          <mxGeometry relative="1" as="geometry" />
        </mxCell>
        <mxCell id="7XJ5g3CMLjdhtXHzvICb-22" value="Error: Numero maximo de intentos alcanzado" style="whiteSpace=wrap;html=1;rounded=0;" vertex="1" parent="7XJ5g3CMLjdhtXHzvICb-1">
          <mxGeometry x="140" y="590" width="120" height="60" as="geometry" />
        </mxCell>
        <mxCell id="OyOOFjSeBGlVrS2nDNpE-0" value="" style="edgeStyle=orthogonalEdgeStyle;rounded=0;orthogonalLoop=1;jettySize=auto;html=1;" edge="1" parent="7XJ5g3CMLjdhtXHzvICb-1" source="0gBAq2o1QKCW9OdAiviv-0" target="0gBAq2o1QKCW9OdAiviv-1">
          <mxGeometry relative="1" as="geometry" />
        </mxCell>
        <mxCell id="0gBAq2o1QKCW9OdAiviv-0" value="Se han hecho 5 intentos?" style="rhombus;whiteSpace=wrap;html=1;" vertex="1" parent="7XJ5g3CMLjdhtXHzvICb-1">
          <mxGeometry x="160" y="260" width="80" height="80" as="geometry" />
        </mxCell>
        <mxCell id="0gBAq2o1QKCW9OdAiviv-1" value="Reintentar" style="rounded=0;whiteSpace=wrap;html=1;" vertex="1" parent="7XJ5g3CMLjdhtXHzvICb-1">
          <mxGeometry x="140" y="440" width="120" height="60" as="geometry" />
        </mxCell>
        <mxCell id="OyOOFjSeBGlVrS2nDNpE-1" value="No" style="text;html=1;align=center;verticalAlign=middle;resizable=0;points=[];autosize=1;strokeColor=none;fillColor=none;" vertex="1" parent="7XJ5g3CMLjdhtXHzvICb-1">
          <mxGeometry x="200" y="370" width="40" height="30" as="geometry" />
        </mxCell>
      </root>
    </mxGraphModel>
  </diagram>
  <diagram name="Ejercicio 9" id="5pbCOaedr2JOcwvbMZHU">
    <mxGraphModel dx="1633" dy="755" grid="1" gridSize="10" guides="1" tooltips="1" connect="1" arrows="1" fold="1" page="1" pageScale="1" pageWidth="827" pageHeight="1169" math="0" shadow="0">
      <root>
        <mxCell id="gdDM2Jbg7MWrZPBApmp1-0" />
        <mxCell id="gdDM2Jbg7MWrZPBApmp1-1" parent="gdDM2Jbg7MWrZPBApmp1-0" />
        <mxCell id="gdDM2Jbg7MWrZPBApmp1-2" value="" style="edgeStyle=none;curved=1;rounded=0;orthogonalLoop=1;jettySize=auto;html=1;fontSize=12;startSize=8;endSize=8;" edge="1" parent="gdDM2Jbg7MWrZPBApmp1-1" source="gdDM2Jbg7MWrZPBApmp1-3" target="gdDM2Jbg7MWrZPBApmp1-6">
          <mxGeometry relative="1" as="geometry" />
        </mxCell>
        <mxCell id="gdDM2Jbg7MWrZPBApmp1-3" value="Inicio" style="ellipse;whiteSpace=wrap;html=1;" vertex="1" parent="gdDM2Jbg7MWrZPBApmp1-1">
          <mxGeometry x="354" y="20" width="120" height="80" as="geometry" />
        </mxCell>
        <mxCell id="gdDM2Jbg7MWrZPBApmp1-4" value="Fin" style="ellipse;whiteSpace=wrap;html=1;" vertex="1" parent="gdDM2Jbg7MWrZPBApmp1-1">
          <mxGeometry x="354" y="990" width="120" height="80" as="geometry" />
        </mxCell>
        <mxCell id="XkQDOxGU5ZH6H-nCw2J2-1" value="" style="edgeStyle=orthogonalEdgeStyle;rounded=0;orthogonalLoop=1;jettySize=auto;html=1;" edge="1" parent="gdDM2Jbg7MWrZPBApmp1-1" source="gdDM2Jbg7MWrZPBApmp1-6" target="XkQDOxGU5ZH6H-nCw2J2-0">
          <mxGeometry relative="1" as="geometry" />
        </mxCell>
        <mxCell id="gdDM2Jbg7MWrZPBApmp1-6" value="Ingresar primer numero" style="shape=parallelogram;perimeter=parallelogramPerimeter;whiteSpace=wrap;html=1;fixedSize=1;" vertex="1" parent="gdDM2Jbg7MWrZPBApmp1-1">
          <mxGeometry x="354" y="160" width="120" height="60" as="geometry" />
        </mxCell>
        <mxCell id="jKLDweOwL0IhcbDZteCk-6" value="" style="edgeStyle=orthogonalEdgeStyle;rounded=0;orthogonalLoop=1;jettySize=auto;html=1;" edge="1" parent="gdDM2Jbg7MWrZPBApmp1-1" source="gdDM2Jbg7MWrZPBApmp1-11" target="jKLDweOwL0IhcbDZteCk-0">
          <mxGeometry relative="1" as="geometry" />
        </mxCell>
        <mxCell id="jKLDweOwL0IhcbDZteCk-10" value="" style="edgeStyle=orthogonalEdgeStyle;rounded=0;orthogonalLoop=1;jettySize=auto;html=1;" edge="1" parent="gdDM2Jbg7MWrZPBApmp1-1" source="gdDM2Jbg7MWrZPBApmp1-11" target="XkQDOxGU5ZH6H-nCw2J2-3">
          <mxGeometry relative="1" as="geometry" />
        </mxCell>
        <mxCell id="gdDM2Jbg7MWrZPBApmp1-11" value="Seleccionar operacion" style="rhombus;whiteSpace=wrap;html=1;" vertex="1" parent="gdDM2Jbg7MWrZPBApmp1-1">
          <mxGeometry x="374" y="360" width="80" height="80" as="geometry" />
        </mxCell>
        <mxCell id="gdDM2Jbg7MWrZPBApmp1-18" value="" style="edgeStyle=none;curved=1;rounded=0;orthogonalLoop=1;jettySize=auto;html=1;fontSize=12;startSize=8;endSize=8;exitX=1;exitY=0.5;exitDx=0;exitDy=0;entryX=1;entryY=0.5;entryDx=0;entryDy=0;" edge="1" parent="gdDM2Jbg7MWrZPBApmp1-1" source="jKLDweOwL0IhcbDZteCk-14" target="jKLDweOwL0IhcbDZteCk-17">
          <mxGeometry relative="1" as="geometry">
            <mxPoint x="780" y="550" as="sourcePoint" />
            <mxPoint x="720" y="230" as="targetPoint" />
            <Array as="points">
              <mxPoint x="750" y="480" />
              <mxPoint x="810" y="290" />
            </Array>
          </mxGeometry>
        </mxCell>
        <mxCell id="gdDM2Jbg7MWrZPBApmp1-19" value="Si" style="edgeLabel;html=1;align=center;verticalAlign=middle;resizable=0;points=[];fontSize=12;" vertex="1" connectable="0" parent="gdDM2Jbg7MWrZPBApmp1-18">
          <mxGeometry x="-0.175" relative="1" as="geometry">
            <mxPoint x="5" y="9" as="offset" />
          </mxGeometry>
        </mxCell>
        <mxCell id="XkQDOxGU5ZH6H-nCw2J2-2" value="" style="edgeStyle=orthogonalEdgeStyle;rounded=0;orthogonalLoop=1;jettySize=auto;html=1;" edge="1" parent="gdDM2Jbg7MWrZPBApmp1-1" source="XkQDOxGU5ZH6H-nCw2J2-0" target="gdDM2Jbg7MWrZPBApmp1-11">
          <mxGeometry relative="1" as="geometry" />
        </mxCell>
        <mxCell id="XkQDOxGU5ZH6H-nCw2J2-0" value="Ingresar segundo numero" style="shape=parallelogram;perimeter=parallelogramPerimeter;whiteSpace=wrap;html=1;fixedSize=1;" vertex="1" parent="gdDM2Jbg7MWrZPBApmp1-1">
          <mxGeometry x="354" y="250" width="120" height="60" as="geometry" />
        </mxCell>
        <mxCell id="jKLDweOwL0IhcbDZteCk-15" value="" style="edgeStyle=orthogonalEdgeStyle;rounded=0;orthogonalLoop=1;jettySize=auto;html=1;" edge="1" parent="gdDM2Jbg7MWrZPBApmp1-1" source="XkQDOxGU5ZH6H-nCw2J2-3" target="jKLDweOwL0IhcbDZteCk-14">
          <mxGeometry relative="1" as="geometry" />
        </mxCell>
        <mxCell id="XkQDOxGU5ZH6H-nCw2J2-3" value="Division" style="shape=parallelogram;perimeter=parallelogramPerimeter;whiteSpace=wrap;html=1;fixedSize=1;" vertex="1" parent="gdDM2Jbg7MWrZPBApmp1-1">
          <mxGeometry x="550" y="370" width="120" height="60" as="geometry" />
        </mxCell>
        <mxCell id="jKLDweOwL0IhcbDZteCk-8" value="" style="edgeStyle=orthogonalEdgeStyle;rounded=0;orthogonalLoop=1;jettySize=auto;html=1;" edge="1" parent="gdDM2Jbg7MWrZPBApmp1-1" source="3kh4-b71l6SaqlW55VSB-0" target="jKLDweOwL0IhcbDZteCk-3">
          <mxGeometry relative="1" as="geometry" />
        </mxCell>
        <mxCell id="3kh4-b71l6SaqlW55VSB-0" value="Resta" style="shape=parallelogram;perimeter=parallelogramPerimeter;whiteSpace=wrap;html=1;fixedSize=1;" vertex="1" parent="gdDM2Jbg7MWrZPBApmp1-1">
          <mxGeometry x="354" y="580" width="120" height="60" as="geometry" />
        </mxCell>
        <mxCell id="jKLDweOwL0IhcbDZteCk-7" value="" style="edgeStyle=orthogonalEdgeStyle;rounded=0;orthogonalLoop=1;jettySize=auto;html=1;" edge="1" parent="gdDM2Jbg7MWrZPBApmp1-1" source="jKLDweOwL0IhcbDZteCk-0" target="3kh4-b71l6SaqlW55VSB-0">
          <mxGeometry relative="1" as="geometry" />
        </mxCell>
        <mxCell id="jKLDweOwL0IhcbDZteCk-0" value="Suma" style="shape=parallelogram;perimeter=parallelogramPerimeter;whiteSpace=wrap;html=1;fixedSize=1;" vertex="1" parent="gdDM2Jbg7MWrZPBApmp1-1">
          <mxGeometry x="354" y="490" width="120" height="60" as="geometry" />
        </mxCell>
        <mxCell id="jKLDweOwL0IhcbDZteCk-11" value="" style="edgeStyle=orthogonalEdgeStyle;rounded=0;orthogonalLoop=1;jettySize=auto;html=1;" edge="1" parent="gdDM2Jbg7MWrZPBApmp1-1" source="jKLDweOwL0IhcbDZteCk-3" target="jKLDweOwL0IhcbDZteCk-5">
          <mxGeometry relative="1" as="geometry" />
        </mxCell>
        <mxCell id="jKLDweOwL0IhcbDZteCk-3" value="Multiplicacion" style="shape=parallelogram;perimeter=parallelogramPerimeter;whiteSpace=wrap;html=1;fixedSize=1;" vertex="1" parent="gdDM2Jbg7MWrZPBApmp1-1">
          <mxGeometry x="354" y="670" width="120" height="60" as="geometry" />
        </mxCell>
        <mxCell id="jKLDweOwL0IhcbDZteCk-13" value="" style="edgeStyle=orthogonalEdgeStyle;rounded=0;orthogonalLoop=1;jettySize=auto;html=1;" edge="1" parent="gdDM2Jbg7MWrZPBApmp1-1" source="jKLDweOwL0IhcbDZteCk-5" target="jKLDweOwL0IhcbDZteCk-12">
          <mxGeometry relative="1" as="geometry" />
        </mxCell>
        <mxCell id="jKLDweOwL0IhcbDZteCk-5" value="Realizar operacion" style="whiteSpace=wrap;html=1;rounded=0;" vertex="1" parent="gdDM2Jbg7MWrZPBApmp1-1">
          <mxGeometry x="354" y="780" width="120" height="60" as="geometry" />
        </mxCell>
        <mxCell id="jKLDweOwL0IhcbDZteCk-24" value="" style="edgeStyle=orthogonalEdgeStyle;rounded=0;orthogonalLoop=1;jettySize=auto;html=1;" edge="1" parent="gdDM2Jbg7MWrZPBApmp1-1" source="jKLDweOwL0IhcbDZteCk-12" target="gdDM2Jbg7MWrZPBApmp1-4">
          <mxGeometry relative="1" as="geometry" />
        </mxCell>
        <mxCell id="jKLDweOwL0IhcbDZteCk-12" value="Mostrar resultado" style="whiteSpace=wrap;html=1;rounded=0;" vertex="1" parent="gdDM2Jbg7MWrZPBApmp1-1">
          <mxGeometry x="354" y="880" width="120" height="60" as="geometry" />
        </mxCell>
        <mxCell id="jKLDweOwL0IhcbDZteCk-22" style="edgeStyle=orthogonalEdgeStyle;rounded=0;orthogonalLoop=1;jettySize=auto;html=1;exitX=0.5;exitY=1;exitDx=0;exitDy=0;entryX=1;entryY=0.5;entryDx=0;entryDy=0;" edge="1" parent="gdDM2Jbg7MWrZPBApmp1-1" source="jKLDweOwL0IhcbDZteCk-14" target="jKLDweOwL0IhcbDZteCk-5">
          <mxGeometry relative="1" as="geometry">
            <mxPoint x="500" y="810" as="targetPoint" />
            <Array as="points">
              <mxPoint x="610" y="810" />
            </Array>
          </mxGeometry>
        </mxCell>
        <mxCell id="jKLDweOwL0IhcbDZteCk-14" value="Segundo numero es 0?" style="rhombus;whiteSpace=wrap;html=1;" vertex="1" parent="gdDM2Jbg7MWrZPBApmp1-1">
          <mxGeometry x="570" y="510" width="80" height="80" as="geometry" />
        </mxCell>
        <mxCell id="jKLDweOwL0IhcbDZteCk-21" style="edgeStyle=orthogonalEdgeStyle;rounded=0;orthogonalLoop=1;jettySize=auto;html=1;exitX=0.25;exitY=0;exitDx=0;exitDy=0;entryX=1;entryY=0.5;entryDx=0;entryDy=0;" edge="1" parent="gdDM2Jbg7MWrZPBApmp1-1" source="jKLDweOwL0IhcbDZteCk-17" target="gdDM2Jbg7MWrZPBApmp1-6">
          <mxGeometry relative="1" as="geometry">
            <mxPoint x="530" y="160" as="targetPoint" />
            <Array as="points">
              <mxPoint x="640" y="191" />
              <mxPoint x="464" y="191" />
            </Array>
          </mxGeometry>
        </mxCell>
        <mxCell id="jKLDweOwL0IhcbDZteCk-17" value="Error: No se puede dividir entre 0" style="whiteSpace=wrap;html=1;rounded=0;" vertex="1" parent="gdDM2Jbg7MWrZPBApmp1-1">
          <mxGeometry x="610" y="220" width="120" height="60" as="geometry" />
        </mxCell>
        <mxCell id="jKLDweOwL0IhcbDZteCk-23" value="No" style="text;html=1;align=center;verticalAlign=middle;resizable=0;points=[];autosize=1;strokeColor=none;fillColor=none;" vertex="1" parent="gdDM2Jbg7MWrZPBApmp1-1">
          <mxGeometry x="610" y="720" width="40" height="30" as="geometry" />
        </mxCell>
      </root>
    </mxGraphModel>
  </diagram>
  <diagram name="Ejercicio 10" id="n2ofMjqKqHGwJOGSekxR">
    <mxGraphModel dx="1633" dy="755" grid="1" gridSize="10" guides="1" tooltips="1" connect="1" arrows="1" fold="1" page="1" pageScale="1" pageWidth="827" pageHeight="1169" math="0" shadow="0">
      <root>
        <mxCell id="5Ejb8MACYUkeOfuwQgXm-0" />
        <mxCell id="5Ejb8MACYUkeOfuwQgXm-1" parent="5Ejb8MACYUkeOfuwQgXm-0" />
        <mxCell id="5Ejb8MACYUkeOfuwQgXm-2" value="" style="edgeStyle=none;curved=1;rounded=0;orthogonalLoop=1;jettySize=auto;html=1;fontSize=12;startSize=8;endSize=8;" edge="1" parent="5Ejb8MACYUkeOfuwQgXm-1" source="5Ejb8MACYUkeOfuwQgXm-3" target="5Ejb8MACYUkeOfuwQgXm-6">
          <mxGeometry relative="1" as="geometry" />
        </mxCell>
        <mxCell id="5Ejb8MACYUkeOfuwQgXm-3" value="Inicio" style="ellipse;whiteSpace=wrap;html=1;" vertex="1" parent="5Ejb8MACYUkeOfuwQgXm-1">
          <mxGeometry x="354" y="20" width="120" height="80" as="geometry" />
        </mxCell>
        <mxCell id="5Ejb8MACYUkeOfuwQgXm-4" value="Fin" style="ellipse;whiteSpace=wrap;html=1;" vertex="1" parent="5Ejb8MACYUkeOfuwQgXm-1">
          <mxGeometry x="354" y="580" width="120" height="80" as="geometry" />
        </mxCell>
        <mxCell id="5Ejb8MACYUkeOfuwQgXm-5" value="" style="edgeStyle=none;curved=1;rounded=0;orthogonalLoop=1;jettySize=auto;html=1;fontSize=12;startSize=8;endSize=8;" edge="1" parent="5Ejb8MACYUkeOfuwQgXm-1" source="5Ejb8MACYUkeOfuwQgXm-6">
          <mxGeometry relative="1" as="geometry">
            <mxPoint x="414" y="260" as="targetPoint" />
          </mxGeometry>
        </mxCell>
        <mxCell id="5Ejb8MACYUkeOfuwQgXm-6" value="Cantidad de producto" style="shape=parallelogram;perimeter=parallelogramPerimeter;whiteSpace=wrap;html=1;fixedSize=1;" vertex="1" parent="5Ejb8MACYUkeOfuwQgXm-1">
          <mxGeometry x="354" y="150" width="120" height="60" as="geometry" />
        </mxCell>
      </root>
    </mxGraphModel>
  </diagram>
  <diagram name="Ejercicio 11" id="U9w-ZLXbzRpPHiuee-kF">
    <mxGraphModel dx="1633" dy="755" grid="1" gridSize="10" guides="1" tooltips="1" connect="1" arrows="1" fold="1" page="1" pageScale="1" pageWidth="827" pageHeight="1169" math="0" shadow="0">
      <root>
        <mxCell id="UixC-BmJQKpSe1z6amZL-0" />
        <mxCell id="UixC-BmJQKpSe1z6amZL-1" parent="UixC-BmJQKpSe1z6amZL-0" />
        <mxCell id="UixC-BmJQKpSe1z6amZL-2" value="Fin" style="ellipse;whiteSpace=wrap;html=1;" vertex="1" parent="UixC-BmJQKpSe1z6amZL-1">
          <mxGeometry x="354" y="580" width="120" height="80" as="geometry" />
        </mxCell>
        <mxCell id="UixC-BmJQKpSe1z6amZL-3" value="" style="edgeStyle=none;curved=1;rounded=0;orthogonalLoop=1;jettySize=auto;html=1;fontSize=12;startSize=8;endSize=8;" edge="1" parent="UixC-BmJQKpSe1z6amZL-1" target="UixC-BmJQKpSe1z6amZL-5">
          <mxGeometry relative="1" as="geometry">
            <mxPoint x="414" y="100" as="sourcePoint" />
          </mxGeometry>
        </mxCell>
        <mxCell id="UixC-BmJQKpSe1z6amZL-4" value="" style="edgeStyle=orthogonalEdgeStyle;rounded=0;orthogonalLoop=1;jettySize=auto;html=1;" edge="1" parent="UixC-BmJQKpSe1z6amZL-1" source="UixC-BmJQKpSe1z6amZL-5" target="UixC-BmJQKpSe1z6amZL-9">
          <mxGeometry relative="1" as="geometry" />
        </mxCell>
        <mxCell id="UixC-BmJQKpSe1z6amZL-5" value="Introducir numeros" style="shape=parallelogram;perimeter=parallelogramPerimeter;whiteSpace=wrap;html=1;fixedSize=1;" vertex="1" parent="UixC-BmJQKpSe1z6amZL-1">
          <mxGeometry x="354" y="150" width="120" height="60" as="geometry" />
        </mxCell>
        <mxCell id="UixC-BmJQKpSe1z6amZL-6" value="Inicio" style="ellipse;whiteSpace=wrap;html=1;" vertex="1" parent="UixC-BmJQKpSe1z6amZL-1">
          <mxGeometry x="354" y="20" width="120" height="80" as="geometry" />
        </mxCell>
        <mxCell id="UixC-BmJQKpSe1z6amZL-7" value="" style="edgeStyle=orthogonalEdgeStyle;rounded=0;orthogonalLoop=1;jettySize=auto;html=1;entryX=1;entryY=0.5;entryDx=0;entryDy=0;" edge="1" parent="UixC-BmJQKpSe1z6amZL-1" source="UixC-BmJQKpSe1z6amZL-9" target="UixC-BmJQKpSe1z6amZL-12">
          <mxGeometry relative="1" as="geometry">
            <mxPoint x="294" y="330" as="targetPoint" />
          </mxGeometry>
        </mxCell>
        <mxCell id="UixC-BmJQKpSe1z6amZL-8" value="" style="edgeStyle=orthogonalEdgeStyle;rounded=0;orthogonalLoop=1;jettySize=auto;html=1;entryX=0;entryY=0.5;entryDx=0;entryDy=0;" edge="1" parent="UixC-BmJQKpSe1z6amZL-1" source="UixC-BmJQKpSe1z6amZL-9" target="UixC-BmJQKpSe1z6amZL-15">
          <mxGeometry relative="1" as="geometry">
            <mxPoint x="544" y="330" as="targetPoint" />
          </mxGeometry>
        </mxCell>
        <mxCell id="UixC-BmJQKpSe1z6amZL-9" value="Impar?" style="strokeWidth=2;html=1;shape=mxgraph.flowchart.decision;whiteSpace=wrap;" vertex="1" parent="UixC-BmJQKpSe1z6amZL-1">
          <mxGeometry x="364" y="280" width="100" height="100" as="geometry" />
        </mxCell>
        <mxCell id="UixC-BmJQKpSe1z6amZL-10" value="si" style="text;html=1;align=center;verticalAlign=middle;resizable=0;points=[];autosize=1;strokeColor=none;fillColor=none;" vertex="1" parent="UixC-BmJQKpSe1z6amZL-1">
          <mxGeometry x="315" y="298" width="30" height="30" as="geometry" />
        </mxCell>
        <mxCell id="UixC-BmJQKpSe1z6amZL-11" style="edgeStyle=orthogonalEdgeStyle;rounded=0;orthogonalLoop=1;jettySize=auto;html=1;entryX=0;entryY=0.5;entryDx=0;entryDy=0;" edge="1" parent="UixC-BmJQKpSe1z6amZL-1" source="UixC-BmJQKpSe1z6amZL-12" target="UixC-BmJQKpSe1z6amZL-17">
          <mxGeometry relative="1" as="geometry">
            <mxPoint x="230" y="530" as="targetPoint" />
            <Array as="points">
              <mxPoint x="230" y="445" />
              <mxPoint x="231" y="445" />
              <mxPoint x="231" y="510" />
            </Array>
          </mxGeometry>
        </mxCell>
        <mxCell id="UixC-BmJQKpSe1z6amZL-12" value="Mostrar numero del centro" style="rounded=1;whiteSpace=wrap;html=1;" vertex="1" parent="UixC-BmJQKpSe1z6amZL-1">
          <mxGeometry x="170" y="300" width="120" height="60" as="geometry" />
        </mxCell>
        <mxCell id="UixC-BmJQKpSe1z6amZL-13" value="no" style="text;html=1;align=center;verticalAlign=middle;resizable=0;points=[];autosize=1;strokeColor=none;fillColor=none;" vertex="1" parent="UixC-BmJQKpSe1z6amZL-1">
          <mxGeometry x="480" y="298" width="40" height="30" as="geometry" />
        </mxCell>
        <mxCell id="UixC-BmJQKpSe1z6amZL-14" style="edgeStyle=orthogonalEdgeStyle;rounded=0;orthogonalLoop=1;jettySize=auto;html=1;entryX=1;entryY=0.5;entryDx=0;entryDy=0;" edge="1" parent="UixC-BmJQKpSe1z6amZL-1" source="UixC-BmJQKpSe1z6amZL-15" target="UixC-BmJQKpSe1z6amZL-17">
          <mxGeometry relative="1" as="geometry">
            <mxPoint x="610" y="520" as="targetPoint" />
            <Array as="points">
              <mxPoint x="610" y="450" />
              <mxPoint x="611" y="450" />
              <mxPoint x="611" y="510" />
            </Array>
          </mxGeometry>
        </mxCell>
        <mxCell id="UixC-BmJQKpSe1z6amZL-15" value="Sumar numeros del centro /2" style="rounded=1;whiteSpace=wrap;html=1;" vertex="1" parent="UixC-BmJQKpSe1z6amZL-1">
          <mxGeometry x="550" y="300" width="120" height="60" as="geometry" />
        </mxCell>
        <mxCell id="UixC-BmJQKpSe1z6amZL-16" value="" style="edgeStyle=orthogonalEdgeStyle;rounded=0;orthogonalLoop=1;jettySize=auto;html=1;" edge="1" parent="UixC-BmJQKpSe1z6amZL-1" source="UixC-BmJQKpSe1z6amZL-17" target="UixC-BmJQKpSe1z6amZL-2">
          <mxGeometry relative="1" as="geometry" />
        </mxCell>
        <mxCell id="UixC-BmJQKpSe1z6amZL-17" value="Mostrar resultado" style="rounded=1;whiteSpace=wrap;html=1;" vertex="1" parent="UixC-BmJQKpSe1z6amZL-1">
          <mxGeometry x="354" y="480" width="120" height="60" as="geometry" />
        </mxCell>
      </root>
    </mxGraphModel>
  </diagram>
  <diagram name="Ejercicio 12" id="ACrpSeGp5MdJ_b436pgQ">
    <mxGraphModel dx="1633" dy="755" grid="1" gridSize="10" guides="1" tooltips="1" connect="1" arrows="1" fold="1" page="1" pageScale="1" pageWidth="827" pageHeight="1169" math="0" shadow="0">
      <root>
        <mxCell id="5ImGoV1aU4xciKbhc4_X-0" />
        <mxCell id="5ImGoV1aU4xciKbhc4_X-1" parent="5ImGoV1aU4xciKbhc4_X-0" />
        <mxCell id="5ImGoV1aU4xciKbhc4_X-2" value="Fin" style="ellipse;whiteSpace=wrap;html=1;" vertex="1" parent="5ImGoV1aU4xciKbhc4_X-1">
          <mxGeometry x="354" y="580" width="120" height="80" as="geometry" />
        </mxCell>
        <mxCell id="5ImGoV1aU4xciKbhc4_X-3" value="" style="edgeStyle=none;curved=1;rounded=0;orthogonalLoop=1;jettySize=auto;html=1;fontSize=12;startSize=8;endSize=8;" edge="1" parent="5ImGoV1aU4xciKbhc4_X-1" target="5ImGoV1aU4xciKbhc4_X-5">
          <mxGeometry relative="1" as="geometry">
            <mxPoint x="414" y="100" as="sourcePoint" />
          </mxGeometry>
        </mxCell>
        <mxCell id="5ImGoV1aU4xciKbhc4_X-4" value="" style="edgeStyle=orthogonalEdgeStyle;rounded=0;orthogonalLoop=1;jettySize=auto;html=1;" edge="1" parent="5ImGoV1aU4xciKbhc4_X-1" source="5ImGoV1aU4xciKbhc4_X-5" target="5ImGoV1aU4xciKbhc4_X-9">
          <mxGeometry relative="1" as="geometry" />
        </mxCell>
        <mxCell id="5ImGoV1aU4xciKbhc4_X-5" value="Introducir numeros" style="shape=parallelogram;perimeter=parallelogramPerimeter;whiteSpace=wrap;html=1;fixedSize=1;" vertex="1" parent="5ImGoV1aU4xciKbhc4_X-1">
          <mxGeometry x="354" y="150" width="120" height="60" as="geometry" />
        </mxCell>
        <mxCell id="5ImGoV1aU4xciKbhc4_X-6" value="Inicio" style="ellipse;whiteSpace=wrap;html=1;" vertex="1" parent="5ImGoV1aU4xciKbhc4_X-1">
          <mxGeometry x="354" y="20" width="120" height="80" as="geometry" />
        </mxCell>
        <mxCell id="5ImGoV1aU4xciKbhc4_X-7" value="" style="edgeStyle=orthogonalEdgeStyle;rounded=0;orthogonalLoop=1;jettySize=auto;html=1;entryX=1;entryY=0.5;entryDx=0;entryDy=0;" edge="1" parent="5ImGoV1aU4xciKbhc4_X-1" source="5ImGoV1aU4xciKbhc4_X-9" target="5ImGoV1aU4xciKbhc4_X-12">
          <mxGeometry relative="1" as="geometry">
            <mxPoint x="294" y="330" as="targetPoint" />
          </mxGeometry>
        </mxCell>
        <mxCell id="5ImGoV1aU4xciKbhc4_X-8" value="" style="edgeStyle=orthogonalEdgeStyle;rounded=0;orthogonalLoop=1;jettySize=auto;html=1;entryX=0;entryY=0.5;entryDx=0;entryDy=0;" edge="1" parent="5ImGoV1aU4xciKbhc4_X-1" source="5ImGoV1aU4xciKbhc4_X-9" target="5ImGoV1aU4xciKbhc4_X-15">
          <mxGeometry relative="1" as="geometry">
            <mxPoint x="544" y="330" as="targetPoint" />
          </mxGeometry>
        </mxCell>
        <mxCell id="5ImGoV1aU4xciKbhc4_X-9" value="Impar?" style="strokeWidth=2;html=1;shape=mxgraph.flowchart.decision;whiteSpace=wrap;" vertex="1" parent="5ImGoV1aU4xciKbhc4_X-1">
          <mxGeometry x="364" y="280" width="100" height="100" as="geometry" />
        </mxCell>
        <mxCell id="5ImGoV1aU4xciKbhc4_X-10" value="si" style="text;html=1;align=center;verticalAlign=middle;resizable=0;points=[];autosize=1;strokeColor=none;fillColor=none;" vertex="1" parent="5ImGoV1aU4xciKbhc4_X-1">
          <mxGeometry x="315" y="298" width="30" height="30" as="geometry" />
        </mxCell>
        <mxCell id="5ImGoV1aU4xciKbhc4_X-11" style="edgeStyle=orthogonalEdgeStyle;rounded=0;orthogonalLoop=1;jettySize=auto;html=1;entryX=0;entryY=0.5;entryDx=0;entryDy=0;" edge="1" parent="5ImGoV1aU4xciKbhc4_X-1" source="5ImGoV1aU4xciKbhc4_X-12" target="5ImGoV1aU4xciKbhc4_X-17">
          <mxGeometry relative="1" as="geometry">
            <mxPoint x="230" y="530" as="targetPoint" />
            <Array as="points">
              <mxPoint x="230" y="445" />
              <mxPoint x="231" y="445" />
              <mxPoint x="231" y="510" />
            </Array>
          </mxGeometry>
        </mxCell>
        <mxCell id="5ImGoV1aU4xciKbhc4_X-12" value="Mostrar numero del centro" style="rounded=1;whiteSpace=wrap;html=1;" vertex="1" parent="5ImGoV1aU4xciKbhc4_X-1">
          <mxGeometry x="170" y="300" width="120" height="60" as="geometry" />
        </mxCell>
        <mxCell id="5ImGoV1aU4xciKbhc4_X-13" value="no" style="text;html=1;align=center;verticalAlign=middle;resizable=0;points=[];autosize=1;strokeColor=none;fillColor=none;" vertex="1" parent="5ImGoV1aU4xciKbhc4_X-1">
          <mxGeometry x="480" y="298" width="40" height="30" as="geometry" />
        </mxCell>
        <mxCell id="5ImGoV1aU4xciKbhc4_X-14" style="edgeStyle=orthogonalEdgeStyle;rounded=0;orthogonalLoop=1;jettySize=auto;html=1;entryX=1;entryY=0.5;entryDx=0;entryDy=0;" edge="1" parent="5ImGoV1aU4xciKbhc4_X-1" source="5ImGoV1aU4xciKbhc4_X-15" target="5ImGoV1aU4xciKbhc4_X-17">
          <mxGeometry relative="1" as="geometry">
            <mxPoint x="610" y="520" as="targetPoint" />
            <Array as="points">
              <mxPoint x="610" y="450" />
              <mxPoint x="611" y="450" />
              <mxPoint x="611" y="510" />
            </Array>
          </mxGeometry>
        </mxCell>
        <mxCell id="5ImGoV1aU4xciKbhc4_X-15" value="Sumar numeros del centro /2" style="rounded=1;whiteSpace=wrap;html=1;" vertex="1" parent="5ImGoV1aU4xciKbhc4_X-1">
          <mxGeometry x="550" y="300" width="120" height="60" as="geometry" />
        </mxCell>
        <mxCell id="5ImGoV1aU4xciKbhc4_X-16" value="" style="edgeStyle=orthogonalEdgeStyle;rounded=0;orthogonalLoop=1;jettySize=auto;html=1;" edge="1" parent="5ImGoV1aU4xciKbhc4_X-1" source="5ImGoV1aU4xciKbhc4_X-17" target="5ImGoV1aU4xciKbhc4_X-2">
          <mxGeometry relative="1" as="geometry" />
        </mxCell>
        <mxCell id="5ImGoV1aU4xciKbhc4_X-17" value="Mostrar resultado" style="rounded=1;whiteSpace=wrap;html=1;" vertex="1" parent="5ImGoV1aU4xciKbhc4_X-1">
          <mxGeometry x="354" y="480" width="120" height="60" as="geometry" />
        </mxCell>
      </root>
    </mxGraphModel>
  </diagram>
  <diagram id="OYBnWoN7slTE5CH0IysA" name="Ejercicio 22">
    <mxGraphModel dx="1633" dy="755" grid="1" gridSize="10" guides="1" tooltips="1" connect="1" arrows="1" fold="1" page="1" pageScale="1" pageWidth="827" pageHeight="1169" math="0" shadow="0">
      <root>
        <mxCell id="0" />
        <mxCell id="1" parent="0" />
        <mxCell id="T2RczENW4kDSGFRf2WQS-1" value="Fin" style="ellipse;whiteSpace=wrap;html=1;" vertex="1" parent="1">
          <mxGeometry x="354" y="580" width="120" height="80" as="geometry" />
        </mxCell>
        <mxCell id="1G7NcaobMkv83_aslZi5-1" value="" style="edgeStyle=none;curved=1;rounded=0;orthogonalLoop=1;jettySize=auto;html=1;fontSize=12;startSize=8;endSize=8;" edge="1" parent="1" target="1G7NcaobMkv83_aslZi5-2">
          <mxGeometry relative="1" as="geometry">
            <mxPoint x="414" y="100" as="sourcePoint" />
          </mxGeometry>
        </mxCell>
        <mxCell id="89Jxaos_uz-dZie2m4Ez-3" value="" style="edgeStyle=orthogonalEdgeStyle;rounded=0;orthogonalLoop=1;jettySize=auto;html=1;" edge="1" parent="1" source="1G7NcaobMkv83_aslZi5-2" target="89Jxaos_uz-dZie2m4Ez-2">
          <mxGeometry relative="1" as="geometry" />
        </mxCell>
        <mxCell id="1G7NcaobMkv83_aslZi5-2" value="Introducir numeros" style="shape=parallelogram;perimeter=parallelogramPerimeter;whiteSpace=wrap;html=1;fixedSize=1;" vertex="1" parent="1">
          <mxGeometry x="354" y="150" width="120" height="60" as="geometry" />
        </mxCell>
        <mxCell id="89Jxaos_uz-dZie2m4Ez-1" value="Inicio" style="ellipse;whiteSpace=wrap;html=1;" vertex="1" parent="1">
          <mxGeometry x="354" y="20" width="120" height="80" as="geometry" />
        </mxCell>
        <mxCell id="hd_StZRvP6P5rcEJjNVk-2" value="" style="edgeStyle=orthogonalEdgeStyle;rounded=0;orthogonalLoop=1;jettySize=auto;html=1;entryX=1;entryY=0.5;entryDx=0;entryDy=0;" edge="1" parent="1" source="89Jxaos_uz-dZie2m4Ez-2" target="OBQV2yq4qGDe_CCbfivC-2">
          <mxGeometry relative="1" as="geometry">
            <mxPoint x="294" y="330" as="targetPoint" />
          </mxGeometry>
        </mxCell>
        <mxCell id="OBQV2yq4qGDe_CCbfivC-4" value="" style="edgeStyle=orthogonalEdgeStyle;rounded=0;orthogonalLoop=1;jettySize=auto;html=1;entryX=0;entryY=0.5;entryDx=0;entryDy=0;" edge="1" parent="1" source="89Jxaos_uz-dZie2m4Ez-2" target="OBQV2yq4qGDe_CCbfivC-6">
          <mxGeometry relative="1" as="geometry">
            <mxPoint x="544" y="330" as="targetPoint" />
          </mxGeometry>
        </mxCell>
        <mxCell id="89Jxaos_uz-dZie2m4Ez-2" value="Impar?" style="strokeWidth=2;html=1;shape=mxgraph.flowchart.decision;whiteSpace=wrap;" vertex="1" parent="1">
          <mxGeometry x="364" y="280" width="100" height="100" as="geometry" />
        </mxCell>
        <mxCell id="hd_StZRvP6P5rcEJjNVk-3" value="si" style="text;html=1;align=center;verticalAlign=middle;resizable=0;points=[];autosize=1;strokeColor=none;fillColor=none;" vertex="1" parent="1">
          <mxGeometry x="315" y="298" width="30" height="30" as="geometry" />
        </mxCell>
        <mxCell id="onZgw08KC9upx4-7xSrH-2" style="edgeStyle=orthogonalEdgeStyle;rounded=0;orthogonalLoop=1;jettySize=auto;html=1;entryX=0;entryY=0.5;entryDx=0;entryDy=0;" edge="1" parent="1" source="OBQV2yq4qGDe_CCbfivC-2" target="onZgw08KC9upx4-7xSrH-1">
          <mxGeometry relative="1" as="geometry">
            <mxPoint x="230" y="530" as="targetPoint" />
            <Array as="points">
              <mxPoint x="230" y="445" />
              <mxPoint x="231" y="445" />
              <mxPoint x="231" y="510" />
            </Array>
          </mxGeometry>
        </mxCell>
        <mxCell id="OBQV2yq4qGDe_CCbfivC-2" value="Mostrar numero del centro" style="rounded=1;whiteSpace=wrap;html=1;" vertex="1" parent="1">
          <mxGeometry x="170" y="300" width="120" height="60" as="geometry" />
        </mxCell>
        <mxCell id="OBQV2yq4qGDe_CCbfivC-5" value="no" style="text;html=1;align=center;verticalAlign=middle;resizable=0;points=[];autosize=1;strokeColor=none;fillColor=none;" vertex="1" parent="1">
          <mxGeometry x="480" y="298" width="40" height="30" as="geometry" />
        </mxCell>
        <mxCell id="onZgw08KC9upx4-7xSrH-3" style="edgeStyle=orthogonalEdgeStyle;rounded=0;orthogonalLoop=1;jettySize=auto;html=1;entryX=1;entryY=0.5;entryDx=0;entryDy=0;" edge="1" parent="1" source="OBQV2yq4qGDe_CCbfivC-6" target="onZgw08KC9upx4-7xSrH-1">
          <mxGeometry relative="1" as="geometry">
            <mxPoint x="610" y="520" as="targetPoint" />
            <Array as="points">
              <mxPoint x="610" y="450" />
              <mxPoint x="611" y="450" />
              <mxPoint x="611" y="510" />
            </Array>
          </mxGeometry>
        </mxCell>
        <mxCell id="OBQV2yq4qGDe_CCbfivC-6" value="Sumar numeros del centro /2" style="rounded=1;whiteSpace=wrap;html=1;" vertex="1" parent="1">
          <mxGeometry x="550" y="300" width="120" height="60" as="geometry" />
        </mxCell>
        <mxCell id="onZgw08KC9upx4-7xSrH-5" value="" style="edgeStyle=orthogonalEdgeStyle;rounded=0;orthogonalLoop=1;jettySize=auto;html=1;" edge="1" parent="1" source="onZgw08KC9upx4-7xSrH-1" target="T2RczENW4kDSGFRf2WQS-1">
          <mxGeometry relative="1" as="geometry" />
        </mxCell>
        <mxCell id="onZgw08KC9upx4-7xSrH-1" value="Mostrar resultado" style="rounded=1;whiteSpace=wrap;html=1;" vertex="1" parent="1">
          <mxGeometry x="354" y="480" width="120" height="60" as="geometry" />
        </mxCell>
      </root>
    </mxGraphModel>
  </diagram>
  <diagram name="Ejercicio 23" id="8OZe5M2d5BdI8pmjjmJL">
    <mxGraphModel dx="1633" dy="755" grid="1" gridSize="10" guides="1" tooltips="1" connect="1" arrows="1" fold="1" page="1" pageScale="1" pageWidth="827" pageHeight="1169" math="0" shadow="0">
      <root>
        <mxCell id="b8qTrWc43COwTbTj3tUm-0" />
        <mxCell id="b8qTrWc43COwTbTj3tUm-1" parent="b8qTrWc43COwTbTj3tUm-0" />
        <mxCell id="b8qTrWc43COwTbTj3tUm-2" value="Fin" style="ellipse;whiteSpace=wrap;html=1;" vertex="1" parent="b8qTrWc43COwTbTj3tUm-1">
          <mxGeometry x="354" y="740" width="120" height="80" as="geometry" />
        </mxCell>
        <mxCell id="b8qTrWc43COwTbTj3tUm-3" value="" style="edgeStyle=none;curved=1;rounded=0;orthogonalLoop=1;jettySize=auto;html=1;fontSize=12;startSize=8;endSize=8;" edge="1" parent="b8qTrWc43COwTbTj3tUm-1" target="b8qTrWc43COwTbTj3tUm-5">
          <mxGeometry relative="1" as="geometry">
            <mxPoint x="414" y="100" as="sourcePoint" />
          </mxGeometry>
        </mxCell>
        <mxCell id="b8qTrWc43COwTbTj3tUm-4" value="" style="edgeStyle=orthogonalEdgeStyle;rounded=0;orthogonalLoop=1;jettySize=auto;html=1;" edge="1" parent="b8qTrWc43COwTbTj3tUm-1" source="b8qTrWc43COwTbTj3tUm-5" target="b8qTrWc43COwTbTj3tUm-9">
          <mxGeometry relative="1" as="geometry" />
        </mxCell>
        <mxCell id="b8qTrWc43COwTbTj3tUm-5" value="Introducir grados celsius" style="shape=parallelogram;perimeter=parallelogramPerimeter;whiteSpace=wrap;html=1;fixedSize=1;" vertex="1" parent="b8qTrWc43COwTbTj3tUm-1">
          <mxGeometry x="354" y="150" width="120" height="60" as="geometry" />
        </mxCell>
        <mxCell id="b8qTrWc43COwTbTj3tUm-6" value="Inicio" style="ellipse;whiteSpace=wrap;html=1;" vertex="1" parent="b8qTrWc43COwTbTj3tUm-1">
          <mxGeometry x="354" y="20" width="120" height="80" as="geometry" />
        </mxCell>
        <mxCell id="b8qTrWc43COwTbTj3tUm-8" value="" style="edgeStyle=orthogonalEdgeStyle;rounded=0;orthogonalLoop=1;jettySize=auto;html=1;entryX=1;entryY=0.5;entryDx=0;entryDy=0;" edge="1" parent="b8qTrWc43COwTbTj3tUm-1" source="b8qTrWc43COwTbTj3tUm-9" target="b8qTrWc43COwTbTj3tUm-5">
          <mxGeometry relative="1" as="geometry">
            <mxPoint x="560" y="180" as="targetPoint" />
            <Array as="points">
              <mxPoint x="561" y="330" />
              <mxPoint x="561" y="180" />
            </Array>
          </mxGeometry>
        </mxCell>
        <mxCell id="YYNbJIJwCY6qvfQroir--0" value="" style="edgeStyle=orthogonalEdgeStyle;rounded=0;orthogonalLoop=1;jettySize=auto;html=1;" edge="1" parent="b8qTrWc43COwTbTj3tUm-1" source="b8qTrWc43COwTbTj3tUm-9" target="b8qTrWc43COwTbTj3tUm-12">
          <mxGeometry relative="1" as="geometry" />
        </mxCell>
        <mxCell id="b8qTrWc43COwTbTj3tUm-9" value="Valido?" style="strokeWidth=2;html=1;shape=mxgraph.flowchart.decision;whiteSpace=wrap;" vertex="1" parent="b8qTrWc43COwTbTj3tUm-1">
          <mxGeometry x="364" y="280" width="100" height="100" as="geometry" />
        </mxCell>
        <mxCell id="b8qTrWc43COwTbTj3tUm-10" value="si" style="text;html=1;align=center;verticalAlign=middle;resizable=0;points=[];autosize=1;strokeColor=none;fillColor=none;" vertex="1" parent="b8qTrWc43COwTbTj3tUm-1">
          <mxGeometry x="380" y="380" width="30" height="30" as="geometry" />
        </mxCell>
        <mxCell id="YYNbJIJwCY6qvfQroir--1" value="" style="edgeStyle=orthogonalEdgeStyle;rounded=0;orthogonalLoop=1;jettySize=auto;html=1;" edge="1" parent="b8qTrWc43COwTbTj3tUm-1" source="b8qTrWc43COwTbTj3tUm-12" target="b8qTrWc43COwTbTj3tUm-17">
          <mxGeometry relative="1" as="geometry" />
        </mxCell>
        <mxCell id="b8qTrWc43COwTbTj3tUm-12" value="Calcular (celsius*9/5)+32" style="rounded=1;whiteSpace=wrap;html=1;" vertex="1" parent="b8qTrWc43COwTbTj3tUm-1">
          <mxGeometry x="354" y="420" width="120" height="60" as="geometry" />
        </mxCell>
        <mxCell id="b8qTrWc43COwTbTj3tUm-13" value="no" style="text;html=1;align=center;verticalAlign=middle;resizable=0;points=[];autosize=1;strokeColor=none;fillColor=none;" vertex="1" parent="b8qTrWc43COwTbTj3tUm-1">
          <mxGeometry x="480" y="298" width="40" height="30" as="geometry" />
        </mxCell>
        <mxCell id="b8qTrWc43COwTbTj3tUm-16" value="" style="edgeStyle=orthogonalEdgeStyle;rounded=0;orthogonalLoop=1;jettySize=auto;html=1;" edge="1" parent="b8qTrWc43COwTbTj3tUm-1" source="b8qTrWc43COwTbTj3tUm-17" target="b8qTrWc43COwTbTj3tUm-2">
          <mxGeometry relative="1" as="geometry" />
        </mxCell>
        <mxCell id="b8qTrWc43COwTbTj3tUm-17" value="Mostrar resultado" style="rounded=1;whiteSpace=wrap;html=1;" vertex="1" parent="b8qTrWc43COwTbTj3tUm-1">
          <mxGeometry x="354" y="585" width="120" height="60" as="geometry" />
        </mxCell>
      </root>
    </mxGraphModel>
  </diagram>
  <diagram name="Ejercicio 24" id="ztgwZqfWPzhAoDmYufCh">
    <mxGraphModel dx="1633" dy="755" grid="1" gridSize="10" guides="1" tooltips="1" connect="1" arrows="1" fold="1" page="1" pageScale="1" pageWidth="827" pageHeight="1169" math="0" shadow="0">
      <root>
        <mxCell id="kcG_B7k8LTfxAOTF7lPc-0" />
        <mxCell id="kcG_B7k8LTfxAOTF7lPc-1" parent="kcG_B7k8LTfxAOTF7lPc-0" />
        <mxCell id="kcG_B7k8LTfxAOTF7lPc-2" value="Fin" style="ellipse;whiteSpace=wrap;html=1;" vertex="1" parent="kcG_B7k8LTfxAOTF7lPc-1">
          <mxGeometry x="354" y="620" width="120" height="80" as="geometry" />
        </mxCell>
        <mxCell id="kcG_B7k8LTfxAOTF7lPc-3" value="" style="edgeStyle=none;curved=1;rounded=0;orthogonalLoop=1;jettySize=auto;html=1;fontSize=12;startSize=8;endSize=8;" edge="1" parent="kcG_B7k8LTfxAOTF7lPc-1" target="kcG_B7k8LTfxAOTF7lPc-5">
          <mxGeometry relative="1" as="geometry">
            <mxPoint x="414" y="100" as="sourcePoint" />
          </mxGeometry>
        </mxCell>
        <mxCell id="kcG_B7k8LTfxAOTF7lPc-4" value="" style="edgeStyle=orthogonalEdgeStyle;rounded=0;orthogonalLoop=1;jettySize=auto;html=1;entryX=0.5;entryY=0;entryDx=0;entryDy=0;" edge="1" parent="kcG_B7k8LTfxAOTF7lPc-1" source="kcG_B7k8LTfxAOTF7lPc-5" target="z3-flHspoF0YIvseePF3-2">
          <mxGeometry relative="1" as="geometry">
            <mxPoint x="414" y="280" as="targetPoint" />
          </mxGeometry>
        </mxCell>
        <mxCell id="kcG_B7k8LTfxAOTF7lPc-5" value="Introducir peso" style="shape=parallelogram;perimeter=parallelogramPerimeter;whiteSpace=wrap;html=1;fixedSize=1;" vertex="1" parent="kcG_B7k8LTfxAOTF7lPc-1">
          <mxGeometry x="354" y="150" width="120" height="60" as="geometry" />
        </mxCell>
        <mxCell id="kcG_B7k8LTfxAOTF7lPc-6" value="Inicio" style="ellipse;whiteSpace=wrap;html=1;" vertex="1" parent="kcG_B7k8LTfxAOTF7lPc-1">
          <mxGeometry x="354" y="20" width="120" height="80" as="geometry" />
        </mxCell>
        <mxCell id="z3-flHspoF0YIvseePF3-7" value="" style="edgeStyle=orthogonalEdgeStyle;rounded=0;orthogonalLoop=1;jettySize=auto;html=1;" edge="1" parent="kcG_B7k8LTfxAOTF7lPc-1" source="kcG_B7k8LTfxAOTF7lPc-12" target="kcG_B7k8LTfxAOTF7lPc-17">
          <mxGeometry relative="1" as="geometry" />
        </mxCell>
        <mxCell id="kcG_B7k8LTfxAOTF7lPc-12" value="&lt;p&gt;calcular peso/estatura&lt;span style=&quot;font-size: 10px;&quot;&gt;^2&lt;/span&gt;&lt;/p&gt;" style="rounded=1;whiteSpace=wrap;html=1;" vertex="1" parent="kcG_B7k8LTfxAOTF7lPc-1">
          <mxGeometry x="354" y="380" width="120" height="60" as="geometry" />
        </mxCell>
        <mxCell id="kcG_B7k8LTfxAOTF7lPc-16" value="" style="edgeStyle=orthogonalEdgeStyle;rounded=0;orthogonalLoop=1;jettySize=auto;html=1;" edge="1" parent="kcG_B7k8LTfxAOTF7lPc-1" source="kcG_B7k8LTfxAOTF7lPc-17" target="kcG_B7k8LTfxAOTF7lPc-2">
          <mxGeometry relative="1" as="geometry" />
        </mxCell>
        <mxCell id="kcG_B7k8LTfxAOTF7lPc-17" value="Mostrar resultado" style="rounded=1;whiteSpace=wrap;html=1;" vertex="1" parent="kcG_B7k8LTfxAOTF7lPc-1">
          <mxGeometry x="354" y="500" width="120" height="60" as="geometry" />
        </mxCell>
        <mxCell id="z3-flHspoF0YIvseePF3-8" value="" style="edgeStyle=orthogonalEdgeStyle;rounded=0;orthogonalLoop=1;jettySize=auto;html=1;" edge="1" parent="kcG_B7k8LTfxAOTF7lPc-1" source="z3-flHspoF0YIvseePF3-2" target="kcG_B7k8LTfxAOTF7lPc-12">
          <mxGeometry relative="1" as="geometry" />
        </mxCell>
        <mxCell id="z3-flHspoF0YIvseePF3-2" value="Introducir estatura" style="shape=parallelogram;perimeter=parallelogramPerimeter;whiteSpace=wrap;html=1;fixedSize=1;" vertex="1" parent="kcG_B7k8LTfxAOTF7lPc-1">
          <mxGeometry x="354" y="260" width="120" height="60" as="geometry" />
        </mxCell>
      </root>
    </mxGraphModel>
  </diagram>
</mxfile>
